<svg width="226" height="22" viewBox="0 0 226 22" fill="none" xmlns="http://www.w3.org/2000/svg">
<path d="M19.4062 4.25C19.8633 4.25 20.25 4.63672 20.25 5.09375V7.0625C20.25 8.32812 19.4414 9.62891 18.0703 10.6133C16.9453 11.4219 15.6094 11.9141 14.2031 12.0898C13.0781 13.918 11.8125 14.6562 11.8125 14.6562V17.1875H13.5C14.7305 17.1875 15.75 17.9258 15.75 19.1562V19.5781C15.75 19.8242 15.5391 20 15.3281 20H4.92188C4.67578 20 4.5 19.8242 4.5 19.5781V19.1562C4.5 17.9258 5.48438 17.1875 6.75 17.1875H8.4375V14.6562C8.4375 14.6562 7.13672 13.918 6.01172 12.0898C4.60547 11.9141 3.26953 11.4219 2.14453 10.6133C0.773438 9.62891 0 8.32812 0 7.0625V5.09375C0 4.63672 0.351562 4.25 0.84375 4.25H4.5V2.84375C4.5 2.38672 4.85156 2 5.34375 2H14.9062C15.3633 2 15.75 2.38672 15.75 2.84375V4.25H19.4062ZM3.48047 8.78516C3.90234 9.10156 4.39453 9.34766 4.95703 9.55859C4.71094 8.67969 4.53516 7.66016 4.5 6.5H2.25V7.0625C2.25 7.48438 2.60156 8.1875 3.48047 8.78516ZM18 7.0625V6.5H15.7148C15.6797 7.66016 15.5039 8.67969 15.2578 9.55859C15.8203 9.34766 16.3125 9.10156 16.7344 8.78516C17.3672 8.36328 18 7.66016 18 7.0625Z" fill="#F4DC73"/>
<path d="M33.562 12.428V10.88H36.496C37.12 10.88 37.636 10.76 38.044 10.52C38.452 10.268 38.758 9.932 38.962 9.512C39.178 9.092 39.286 8.624 39.286 8.108C39.286 7.58 39.178 7.106 38.962 6.686C38.758 6.266 38.452 5.936 38.044 5.696C37.636 5.456 37.12 5.336 36.496 5.336H33.562V3.788H36.172C37.252 3.788 38.152 3.962 38.872 4.31C39.604 4.646 40.156 5.126 40.528 5.75C40.9 6.374 41.086 7.112 41.086 7.964V8.252C41.086 9.092 40.9 9.83 40.528 10.466C40.156 11.09 39.604 11.576 38.872 11.924C38.152 12.26 37.252 12.428 36.172 12.428H33.562ZM32.158 17V3.788H33.922V17H32.158ZM46.7299 17.324C45.8899 17.324 45.1639 17.18 44.5519 16.892C43.9399 16.604 43.4419 16.226 43.0579 15.758C42.6739 15.278 42.3859 14.744 42.1939 14.156C42.0139 13.568 41.9239 12.968 41.9239 12.356V12.032C41.9239 11.408 42.0139 10.802 42.1939 10.214C42.3859 9.626 42.6739 9.098 43.0579 8.63C43.4419 8.15 43.9279 7.772 44.5159 7.496C45.1159 7.208 45.8179 7.064 46.6219 7.064C47.6659 7.064 48.5239 7.292 49.1959 7.748C49.8799 8.192 50.3839 8.768 50.7079 9.476C51.0439 10.184 51.2119 10.94 51.2119 11.744V12.518H42.6799V11.222H49.9519L49.5559 11.924C49.5559 11.24 49.4479 10.652 49.2319 10.16C49.0159 9.656 48.6919 9.266 48.2599 8.99C47.8279 8.714 47.2819 8.576 46.6219 8.576C45.9379 8.576 45.3679 8.732 44.9119 9.044C44.4679 9.356 44.1319 9.782 43.9039 10.322C43.6879 10.862 43.5799 11.486 43.5799 12.194C43.5799 12.878 43.6879 13.496 43.9039 14.048C44.1319 14.588 44.4799 15.02 44.9479 15.344C45.4159 15.656 46.0099 15.812 46.7299 15.812C47.4859 15.812 48.0979 15.644 48.5659 15.308C49.0459 14.972 49.3339 14.582 49.4299 14.138H51.0499C50.9179 14.798 50.6539 15.368 50.2579 15.848C49.8619 16.328 49.3639 16.694 48.7639 16.946C48.1639 17.198 47.4859 17.324 46.7299 17.324ZM53.0654 17V7.388H54.4334V11.348H54.3614C54.3614 9.944 54.6674 8.918 55.2794 8.27C55.9034 7.61 56.8334 7.28 58.0694 7.28H58.3934V8.828H57.7814C56.8214 8.828 56.0834 9.086 55.5674 9.602C55.0514 10.106 54.7934 10.838 54.7934 11.798V17H53.0654ZM62.9982 17.288C61.7382 17.288 60.7602 17.018 60.0642 16.478C59.3802 15.938 59.0262 15.2 59.0022 14.264H60.6222C60.6462 14.636 60.8322 14.99 61.1802 15.326C61.5402 15.65 62.1462 15.812 62.9982 15.812C63.7662 15.812 64.3542 15.662 64.7622 15.362C65.1702 15.05 65.3742 14.672 65.3742 14.228C65.3742 13.832 65.2242 13.526 64.9242 13.31C64.6242 13.082 64.1382 12.932 63.4662 12.86L62.4222 12.752C61.5102 12.656 60.7662 12.386 60.1902 11.942C59.6142 11.486 59.3262 10.85 59.3262 10.034C59.3262 9.422 59.4822 8.9 59.7942 8.468C60.1062 8.024 60.5382 7.688 61.0902 7.46C61.6422 7.22 62.2782 7.1 62.9982 7.1C64.0782 7.1 64.9542 7.34 65.6262 7.82C66.2982 8.3 66.6462 9.014 66.6702 9.962H65.0502C65.0382 9.578 64.8582 9.254 64.5102 8.99C64.1742 8.714 63.6702 8.576 62.9982 8.576C62.3262 8.576 61.8162 8.714 61.4682 8.99C61.1202 9.266 60.9462 9.614 60.9462 10.034C60.9462 10.394 61.0662 10.682 61.3062 10.898C61.5582 11.114 61.9662 11.252 62.5302 11.312L63.5742 11.42C64.6062 11.528 65.4342 11.816 66.0582 12.284C66.6822 12.74 66.9942 13.388 66.9942 14.228C66.9942 14.828 66.8202 15.362 66.4722 15.83C66.1362 16.286 65.6682 16.646 65.0682 16.91C64.4682 17.162 63.7782 17.288 62.9982 17.288ZM73.3266 17.324C72.4866 17.324 71.7486 17.18 71.1126 16.892C70.4766 16.604 69.9366 16.226 69.4926 15.758C69.0606 15.278 68.7306 14.744 68.5026 14.156C68.2866 13.568 68.1786 12.968 68.1786 12.356V12.032C68.1786 11.42 68.2926 10.82 68.5206 10.232C68.7486 9.632 69.0846 9.098 69.5286 8.63C69.9726 8.15 70.5126 7.772 71.1486 7.496C71.7846 7.208 72.5106 7.064 73.3266 7.064C74.1426 7.064 74.8686 7.208 75.5046 7.496C76.1406 7.772 76.6806 8.15 77.1246 8.63C77.5686 9.098 77.9046 9.632 78.1326 10.232C78.3606 10.82 78.4746 11.42 78.4746 12.032V12.356C78.4746 12.968 78.3606 13.568 78.1326 14.156C77.9166 14.744 77.5866 15.278 77.1426 15.758C76.7106 16.226 76.1766 16.604 75.5406 16.892C74.9046 17.18 74.1666 17.324 73.3266 17.324ZM73.3266 15.776C74.0466 15.776 74.6586 15.62 75.1626 15.308C75.6786 14.984 76.0686 14.552 76.3326 14.012C76.6086 13.472 76.7466 12.866 76.7466 12.194C76.7466 11.51 76.6086 10.898 76.3326 10.358C76.0566 9.818 75.6606 9.392 75.1446 9.08C74.6406 8.768 74.0346 8.612 73.3266 8.612C72.6306 8.612 72.0246 8.768 71.5086 9.08C70.9926 9.392 70.5966 9.818 70.3206 10.358C70.0446 10.898 69.9066 11.51 69.9066 12.194C69.9066 12.866 70.0386 13.472 70.3026 14.012C70.5786 14.552 70.9686 14.984 71.4726 15.308C71.9886 15.62 72.6066 15.776 73.3266 15.776ZM80.4626 17V7.388H81.8306V11.51H81.6146C81.6146 10.562 81.7406 9.764 81.9926 9.116C82.2566 8.456 82.6526 7.958 83.1806 7.622C83.7086 7.274 84.3746 7.1 85.1786 7.1H85.2506C86.4626 7.1 87.3566 7.478 87.9326 8.234C88.5206 8.99 88.8146 10.082 88.8146 11.51V17H87.0866V11.15C87.0866 10.406 86.8766 9.812 86.4566 9.368C86.0366 8.912 85.4606 8.684 84.7286 8.684C83.9726 8.684 83.3606 8.918 82.8926 9.386C82.4246 9.854 82.1906 10.478 82.1906 11.258V17H80.4626ZM97.1903 17V14.12H96.9023V10.79C96.9023 10.13 96.7283 9.632 96.3803 9.296C96.0443 8.96 95.5463 8.792 94.8863 8.792C94.5143 8.792 94.1303 8.798 93.7343 8.81C93.3383 8.822 92.9603 8.834 92.6003 8.846C92.2403 8.858 91.9283 8.876 91.6643 8.9V7.388C91.9283 7.364 92.2043 7.346 92.4923 7.334C92.7923 7.31 93.0983 7.298 93.4103 7.298C93.7223 7.286 94.0223 7.28 94.3103 7.28C95.2943 7.28 96.0983 7.4 96.7223 7.64C97.3463 7.868 97.8083 8.246 98.1083 8.774C98.4083 9.302 98.5583 10.016 98.5583 10.916V17H97.1903ZM94.0403 17.252C93.3203 17.252 92.6963 17.132 92.1683 16.892C91.6523 16.64 91.2503 16.28 90.9623 15.812C90.6863 15.344 90.5483 14.78 90.5483 14.12C90.5483 13.436 90.6983 12.866 90.9983 12.41C91.3103 11.954 91.7603 11.612 92.3483 11.384C92.9363 11.144 93.6443 11.024 94.4723 11.024H97.0823V12.32H94.4003C93.7043 12.32 93.1703 12.488 92.7983 12.824C92.4263 13.16 92.2403 13.592 92.2403 14.12C92.2403 14.648 92.4263 15.074 92.7983 15.398C93.1703 15.722 93.7043 15.884 94.4003 15.884C94.8083 15.884 95.1983 15.812 95.5703 15.668C95.9423 15.512 96.2483 15.26 96.4883 14.912C96.7403 14.552 96.8783 14.06 96.9023 13.436L97.3703 14.12C97.3103 14.804 97.1423 15.38 96.8663 15.848C96.6023 16.304 96.2303 16.652 95.7503 16.892C95.2823 17.132 94.7123 17.252 94.0403 17.252ZM101.238 17V3.86H102.966V17H101.238ZM99.9058 5.228V3.86H102.966V5.228H99.9058ZM114.252 17.324C113.46 17.324 112.752 17.15 112.128 16.802C111.516 16.454 111.03 15.95 110.67 15.29C110.31 14.618 110.112 13.814 110.076 12.878H110.544V17H109.176V3.86H110.904V10.25L110.292 11.564C110.34 10.52 110.55 9.668 110.922 9.008C111.294 8.348 111.78 7.862 112.38 7.55C112.992 7.226 113.664 7.064 114.396 7.064C115.08 7.064 115.704 7.196 116.268 7.46C116.832 7.712 117.318 8.066 117.726 8.522C118.134 8.966 118.446 9.488 118.662 10.088C118.878 10.676 118.986 11.312 118.986 11.996V12.32C118.986 13.004 118.872 13.646 118.644 14.246C118.428 14.846 118.11 15.38 117.69 15.848C117.27 16.304 116.766 16.664 116.178 16.928C115.602 17.192 114.96 17.324 114.252 17.324ZM114.054 15.812C114.702 15.812 115.266 15.656 115.746 15.344C116.226 15.032 116.598 14.606 116.862 14.066C117.126 13.514 117.258 12.878 117.258 12.158C117.258 11.438 117.12 10.808 116.844 10.268C116.58 9.728 116.208 9.314 115.728 9.026C115.248 8.726 114.69 8.576 114.054 8.576C113.478 8.576 112.944 8.708 112.452 8.972C111.96 9.224 111.564 9.596 111.264 10.088C110.976 10.568 110.832 11.15 110.832 11.834V12.662C110.832 13.322 110.982 13.886 111.282 14.354C111.582 14.822 111.978 15.182 112.47 15.434C112.962 15.686 113.49 15.812 114.054 15.812ZM125.072 17.324C124.232 17.324 123.506 17.18 122.894 16.892C122.282 16.604 121.784 16.226 121.4 15.758C121.016 15.278 120.728 14.744 120.536 14.156C120.356 13.568 120.266 12.968 120.266 12.356V12.032C120.266 11.408 120.356 10.802 120.536 10.214C120.728 9.626 121.016 9.098 121.4 8.63C121.784 8.15 122.27 7.772 122.858 7.496C123.458 7.208 124.16 7.064 124.964 7.064C126.008 7.064 126.866 7.292 127.538 7.748C128.222 8.192 128.726 8.768 129.05 9.476C129.386 10.184 129.554 10.94 129.554 11.744V12.518H121.022V11.222H128.294L127.898 11.924C127.898 11.24 127.79 10.652 127.574 10.16C127.358 9.656 127.034 9.266 126.602 8.99C126.17 8.714 125.624 8.576 124.964 8.576C124.28 8.576 123.71 8.732 123.254 9.044C122.81 9.356 122.474 9.782 122.246 10.322C122.03 10.862 121.922 11.486 121.922 12.194C121.922 12.878 122.03 13.496 122.246 14.048C122.474 14.588 122.822 15.02 123.29 15.344C123.758 15.656 124.352 15.812 125.072 15.812C125.828 15.812 126.44 15.644 126.908 15.308C127.388 14.972 127.676 14.582 127.772 14.138H129.392C129.26 14.798 128.996 15.368 128.6 15.848C128.204 16.328 127.706 16.694 127.106 16.946C126.506 17.198 125.828 17.324 125.072 17.324ZM134.558 17.288C133.298 17.288 132.32 17.018 131.624 16.478C130.94 15.938 130.586 15.2 130.562 14.264H132.182C132.206 14.636 132.392 14.99 132.74 15.326C133.1 15.65 133.706 15.812 134.558 15.812C135.326 15.812 135.914 15.662 136.322 15.362C136.73 15.05 136.934 14.672 136.934 14.228C136.934 13.832 136.784 13.526 136.484 13.31C136.184 13.082 135.698 12.932 135.026 12.86L133.982 12.752C133.07 12.656 132.326 12.386 131.75 11.942C131.174 11.486 130.886 10.85 130.886 10.034C130.886 9.422 131.042 8.9 131.354 8.468C131.666 8.024 132.098 7.688 132.65 7.46C133.202 7.22 133.838 7.1 134.558 7.1C135.638 7.1 136.514 7.34 137.186 7.82C137.858 8.3 138.206 9.014 138.23 9.962H136.61C136.598 9.578 136.418 9.254 136.07 8.99C135.734 8.714 135.23 8.576 134.558 8.576C133.886 8.576 133.376 8.714 133.028 8.99C132.68 9.266 132.506 9.614 132.506 10.034C132.506 10.394 132.626 10.682 132.866 10.898C133.118 11.114 133.526 11.252 134.09 11.312L135.134 11.42C136.166 11.528 136.994 11.816 137.618 12.284C138.242 12.74 138.554 13.388 138.554 14.228C138.554 14.828 138.38 15.362 138.032 15.83C137.696 16.286 137.228 16.646 136.628 16.91C136.028 17.162 135.338 17.288 134.558 17.288ZM144.202 17.108C143.482 17.108 142.858 17.006 142.33 16.802C141.814 16.598 141.412 16.25 141.124 15.758C140.848 15.254 140.71 14.576 140.71 13.724V4.472H142.366V13.94C142.366 14.456 142.504 14.858 142.78 15.146C143.068 15.422 143.47 15.56 143.986 15.56H145.678V17.108H144.202ZM139.054 8.684V7.388H145.678V8.684H139.054ZM147.18 17V14.804H149.268V17H147.18ZM147.18 10.34V8.144H149.268V10.34H147.18Z" fill="#949497"/>
<path d="M159.053 3.5C160.013 3.5 160.811 3.668 161.447 4.004C162.095 4.34 162.605 4.802 162.977 5.39C163.361 5.966 163.631 6.632 163.787 7.388C163.955 8.144 164.039 8.936 164.039 9.764V10.628C164.039 12.704 163.523 14.306 162.491 15.434C161.459 16.55 159.965 17.108 158.009 17.108C157.541 17.108 157.145 17.096 156.821 17.072C156.497 17.048 156.143 17.012 155.759 16.964V15.488C156.155 15.536 156.521 15.572 156.857 15.596C157.193 15.62 157.601 15.632 158.081 15.632C159.173 15.632 160.037 15.428 160.673 15.02C161.309 14.612 161.765 14.03 162.041 13.274C162.317 12.506 162.455 11.582 162.455 10.502V9.692L162.887 8.09C162.875 9.038 162.689 9.824 162.329 10.448C161.981 11.072 161.495 11.54 160.871 11.852C160.259 12.164 159.551 12.32 158.747 12.32C157.811 12.32 157.019 12.134 156.371 11.762C155.723 11.378 155.231 10.856 154.895 10.196C154.571 9.536 154.409 8.786 154.409 7.946C154.409 7.094 154.583 6.332 154.931 5.66C155.279 4.988 155.795 4.46 156.479 4.076C157.175 3.692 158.033 3.5 159.053 3.5ZM159.053 5.012C158.393 5.012 157.841 5.138 157.397 5.39C156.953 5.642 156.617 5.99 156.389 6.434C156.173 6.866 156.065 7.37 156.065 7.946C156.065 8.522 156.173 9.032 156.389 9.476C156.605 9.92 156.923 10.268 157.343 10.52C157.775 10.76 158.303 10.88 158.927 10.88C159.539 10.88 160.085 10.766 160.565 10.538C161.057 10.31 161.441 9.98 161.717 9.548C161.993 9.104 162.131 8.564 162.131 7.928C162.131 7.4 162.023 6.914 161.807 6.47C161.591 6.026 161.255 5.672 160.799 5.408C160.343 5.144 159.761 5.012 159.053 5.012ZM166.106 17V14.84C166.106 14.312 166.178 13.862 166.322 13.49C166.478 13.118 166.742 12.782 167.114 12.482C167.486 12.17 167.99 11.87 168.626 11.582L171.092 10.448C171.692 10.172 172.166 9.818 172.514 9.386C172.862 8.942 173.036 8.372 173.036 7.676C173.036 6.836 172.802 6.182 172.334 5.714C171.866 5.246 171.206 5.012 170.354 5.012C169.514 5.012 168.854 5.246 168.374 5.714C167.894 6.182 167.654 6.836 167.654 7.676H165.962C165.962 6.92 166.118 6.224 166.43 5.588C166.754 4.952 167.24 4.448 167.888 4.076C168.536 3.692 169.358 3.5 170.354 3.5C171.35 3.5 172.166 3.692 172.802 4.076C173.45 4.448 173.93 4.94 174.242 5.552C174.566 6.164 174.728 6.83 174.728 7.55V7.802C174.728 8.75 174.452 9.548 173.9 10.196C173.36 10.844 172.628 11.378 171.704 11.798L169.238 12.932C168.686 13.184 168.314 13.436 168.122 13.688C167.93 13.94 167.834 14.276 167.834 14.696V16.352L167.366 15.524H174.89V17H166.106ZM182.847 17L179.301 3.86H181.119L184.197 15.848L183.351 15.416H185.493L184.557 15.848L187.059 4.4H188.715L185.853 17H182.847ZM190.749 17L187.599 4.4H189.309L192.135 15.848L191.235 15.416H193.395L192.477 15.848L195.231 3.86H196.995L193.773 17H190.749ZM200.246 12.428V10.88H203.18C203.804 10.88 204.32 10.76 204.728 10.52C205.136 10.268 205.442 9.932 205.646 9.512C205.862 9.092 205.97 8.624 205.97 8.108C205.97 7.58 205.862 7.106 205.646 6.686C205.442 6.266 205.136 5.936 204.728 5.696C204.32 5.456 203.804 5.336 203.18 5.336H200.246V3.788H202.856C203.936 3.788 204.836 3.962 205.556 4.31C206.288 4.646 206.84 5.126 207.212 5.75C207.584 6.374 207.77 7.112 207.77 7.964V8.252C207.77 9.092 207.584 9.83 207.212 10.466C206.84 11.09 206.288 11.576 205.556 11.924C204.836 12.26 203.936 12.428 202.856 12.428H200.246ZM198.842 17V3.788H200.606V17H198.842ZM209.756 17V3.86H212.096L215.984 12.626H216.272L220.142 3.86H222.5V17H220.736V5.786L220.862 5.822L217.136 14.282H214.976L211.232 5.822L211.376 5.786V17H209.756Z" fill="white"/>
</svg>
