<svg width="133" height="19" viewBox="0 0 133 19" fill="none" xmlns="http://www.w3.org/2000/svg">
<path d="M17.25 3.5C17.6562 3.5 18 3.84375 18 4.25V6C18 7.125 17.2812 8.28125 16.0625 9.15625C15.0625 9.875 13.875 10.3125 12.625 10.4688C11.625 12.0938 10.5 12.75 10.5 12.75V15H12C13.0938 15 14 15.6562 14 16.75V17.125C14 17.3438 13.8125 17.5 13.625 17.5H4.375C4.15625 17.5 4 17.3438 4 17.125V16.75C4 15.6562 4.875 15 6 15H7.5V12.75C7.5 12.75 6.34375 12.0938 5.34375 10.4688C4.09375 10.3125 2.90625 9.875 1.90625 9.15625C0.6875 8.28125 0 7.125 0 6V4.25C0 3.84375 0.3125 3.5 0.75 3.5H4V2.25C4 1.84375 4.3125 1.5 4.75 1.5H13.25C13.6562 1.5 14 1.84375 14 2.25V3.5H17.25ZM3.09375 7.53125C3.46875 7.8125 3.90625 8.03125 4.40625 8.21875C4.1875 7.4375 4.03125 6.53125 4 5.5H2V6C2 6.375 2.3125 7 3.09375 7.53125ZM16 6V5.5H13.9688C13.9375 6.53125 13.7812 7.4375 13.5625 8.21875C14.0625 8.03125 14.5 7.8125 14.875 7.53125C15.4375 7.15625 16 6.53125 16 6Z" fill="#F4DC73"/>
<path d="M30.944 15.064V13.688H34.208C34.8373 13.688 35.3227 13.512 35.664 13.16C36.016 12.7973 36.192 12.3173 36.192 11.72C36.192 11.112 36.0213 10.6373 35.68 10.296C35.3387 9.944 34.848 9.768 34.208 9.768H30.944V8.744H33.984C34.7307 8.744 35.3867 8.83467 35.952 9.016C36.528 9.19733 36.976 9.50133 37.296 9.928C37.6267 10.344 37.792 10.9147 37.792 11.64V11.864C37.792 12.5467 37.6533 13.128 37.376 13.608C37.0987 14.0773 36.6773 14.44 36.112 14.696C35.5467 14.9413 34.8373 15.064 33.984 15.064H30.944ZM29.696 15.064V3.256H31.264V15.064H29.696ZM30.944 9.48V8.456H33.776C34.4373 8.456 34.9227 8.28 35.232 7.928C35.552 7.56533 35.712 7.10667 35.712 6.552C35.712 5.98667 35.552 5.528 35.232 5.176C34.9227 4.81333 34.4373 4.632 33.776 4.632H30.944V3.256H33.504C34.784 3.256 35.7387 3.528 36.368 4.072C36.9973 4.60533 37.312 5.37867 37.312 6.392V6.616C37.312 7.33067 37.152 7.90133 36.832 8.328C36.512 8.744 36.064 9.04267 35.488 9.224C34.9227 9.39467 34.2613 9.48 33.504 9.48H30.944ZM43.4365 15.288C42.6898 15.288 42.0445 15.16 41.5005 14.904C40.9565 14.648 40.5138 14.312 40.1725 13.896C39.8312 13.4693 39.5752 12.9947 39.4045 12.472C39.2445 11.9493 39.1645 11.416 39.1645 10.872V10.584C39.1645 10.0293 39.2445 9.49067 39.4045 8.968C39.5752 8.44533 39.8312 7.976 40.1725 7.56C40.5138 7.13333 40.9458 6.79733 41.4685 6.552C42.0018 6.296 42.6258 6.168 43.3405 6.168C44.2685 6.168 45.0312 6.37067 45.6285 6.776C46.2365 7.17067 46.6845 7.68267 46.9725 8.312C47.2712 8.94133 47.4205 9.61333 47.4205 10.328V11.016H39.8365V9.864H46.3005L45.9485 10.488C45.9485 9.88 45.8525 9.35733 45.6605 8.92C45.4685 8.472 45.1805 8.12533 44.7965 7.88C44.4125 7.63467 43.9272 7.512 43.3405 7.512C42.7325 7.512 42.2258 7.65067 41.8205 7.928C41.4258 8.20533 41.1272 8.584 40.9245 9.064C40.7325 9.544 40.6365 10.0987 40.6365 10.728C40.6365 11.336 40.7325 11.8853 40.9245 12.376C41.1272 12.856 41.4365 13.24 41.8525 13.528C42.2685 13.8053 42.7965 13.944 43.4365 13.944C44.1085 13.944 44.6525 13.7947 45.0685 13.496C45.4952 13.1973 45.7512 12.8507 45.8365 12.456H47.2765C47.1592 13.0427 46.9245 13.5493 46.5725 13.976C46.2205 14.4027 45.7778 14.728 45.2445 14.952C44.7112 15.176 44.1085 15.288 43.4365 15.288ZM51.9214 15.256C50.8014 15.256 49.932 15.016 49.3134 14.536C48.7054 14.056 48.3907 13.4 48.3694 12.568H49.8094C49.8307 12.8987 49.996 13.2133 50.3054 13.512C50.6254 13.8 51.164 13.944 51.9214 13.944C52.604 13.944 53.1267 13.8107 53.4894 13.544C53.852 13.2667 54.0334 12.9307 54.0334 12.536C54.0334 12.184 53.9 11.912 53.6334 11.72C53.3667 11.5173 52.9347 11.384 52.3374 11.32L51.4094 11.224C50.5987 11.1387 49.9374 10.8987 49.4254 10.504C48.9134 10.0987 48.6574 9.53333 48.6574 8.808C48.6574 8.264 48.796 7.8 49.0734 7.416C49.3507 7.02133 49.7347 6.72267 50.2254 6.52C50.716 6.30667 51.2814 6.2 51.9214 6.2C52.8814 6.2 53.66 6.41333 54.2574 6.84C54.8547 7.26667 55.164 7.90133 55.1854 8.744H53.7454C53.7347 8.40267 53.5747 8.11467 53.2654 7.88C52.9667 7.63467 52.5187 7.512 51.9214 7.512C51.324 7.512 50.8707 7.63467 50.5614 7.88C50.252 8.12533 50.0974 8.43467 50.0974 8.808C50.0974 9.128 50.204 9.384 50.4174 9.576C50.6414 9.768 51.004 9.89067 51.5054 9.944L52.4334 10.04C53.3507 10.136 54.0867 10.392 54.6414 10.808C55.196 11.2133 55.4734 11.7893 55.4734 12.536C55.4734 13.0693 55.3187 13.544 55.0094 13.96C54.7107 14.3653 54.2947 14.6853 53.7614 14.92C53.228 15.144 52.6147 15.256 51.9214 15.256ZM60.5475 15.096C59.9075 15.096 59.3528 15.0053 58.8835 14.824C58.4248 14.6427 58.0675 14.3333 57.8115 13.896C57.5662 13.448 57.4435 12.8453 57.4435 12.088V3.864H58.9155V12.28C58.9155 12.7387 59.0382 13.096 59.2835 13.352C59.5395 13.5973 59.8968 13.72 60.3555 13.72H61.8595V15.096H60.5475ZM55.9715 7.608V6.456H61.8595V7.608H55.9715ZM63.248 15V13.048H65.104V15H63.248ZM63.248 9.08V7.128H65.104V9.08H63.248Z" fill="#949497"/>
<path d="M73.9081 3C74.7615 3 75.4708 3.14933 76.0361 3.448C76.6121 3.74667 77.0655 4.15733 77.3961 4.68C77.7375 5.192 77.9775 5.784 78.1161 6.456C78.2655 7.128 78.3401 7.832 78.3401 8.568V9.336C78.3401 11.1813 77.8815 12.6053 76.9641 13.608C76.0468 14.6 74.7188 15.096 72.9801 15.096C72.5641 15.096 72.2121 15.0853 71.9241 15.064C71.6361 15.0427 71.3215 15.0107 70.9801 14.968V13.656C71.3321 13.6987 71.6575 13.7307 71.9561 13.752C72.2548 13.7733 72.6175 13.784 73.0441 13.784C74.0148 13.784 74.7828 13.6027 75.3481 13.24C75.9135 12.8773 76.3188 12.36 76.5641 11.688C76.8095 11.0053 76.9321 10.184 76.9321 9.224V8.504L77.3161 7.08C77.3055 7.92267 77.1401 8.62133 76.8201 9.176C76.5108 9.73067 76.0788 10.1467 75.5241 10.424C74.9801 10.7013 74.3508 10.84 73.6361 10.84C72.8041 10.84 72.1001 10.6747 71.5241 10.344C70.9481 10.0027 70.5108 9.53867 70.2121 8.952C69.9241 8.36533 69.7801 7.69867 69.7801 6.952C69.7801 6.19467 69.9348 5.51733 70.2441 4.92C70.5535 4.32267 71.0121 3.85333 71.6201 3.512C72.2388 3.17067 73.0015 3 73.9081 3ZM73.9081 4.344C73.3215 4.344 72.8308 4.456 72.4361 4.68C72.0415 4.904 71.7428 5.21333 71.5401 5.608C71.3481 5.992 71.2521 6.44 71.2521 6.952C71.2521 7.464 71.3481 7.91733 71.5401 8.312C71.7321 8.70667 72.0148 9.016 72.3881 9.24C72.7721 9.45333 73.2415 9.56 73.7961 9.56C74.3401 9.56 74.8255 9.45867 75.2521 9.256C75.6895 9.05333 76.0308 8.76 76.2761 8.376C76.5215 7.98133 76.6441 7.50133 76.6441 6.936C76.6441 6.46667 76.5481 6.03467 76.3561 5.64C76.1641 5.24533 75.8655 4.93067 75.4601 4.696C75.0548 4.46133 74.5375 4.344 73.9081 4.344ZM80.231 15V13.08C80.231 12.6107 80.295 12.2107 80.423 11.88C80.5617 11.5493 80.7963 11.2507 81.127 10.984C81.4577 10.7067 81.9057 10.44 82.471 10.184L84.663 9.176C85.1963 8.93067 85.6177 8.616 85.927 8.232C86.2363 7.83733 86.391 7.33067 86.391 6.712C86.391 5.96533 86.183 5.384 85.767 4.968C85.351 4.552 84.7643 4.344 84.007 4.344C83.2603 4.344 82.6737 4.552 82.247 4.968C81.8203 5.384 81.607 5.96533 81.607 6.712H80.103C80.103 6.04 80.2417 5.42133 80.519 4.856C80.807 4.29067 81.239 3.84267 81.815 3.512C82.391 3.17067 83.1217 3 84.007 3C84.8923 3 85.6177 3.17067 86.183 3.512C86.759 3.84267 87.1857 4.28 87.463 4.824C87.751 5.368 87.895 5.96 87.895 6.6V6.824C87.895 7.66667 87.6497 8.376 87.159 8.952C86.679 9.528 86.0283 10.0027 85.207 10.376L83.015 11.384C82.5243 11.608 82.1937 11.832 82.023 12.056C81.8523 12.28 81.767 12.5787 81.767 12.952V14.424L81.351 13.688H88.039V15H80.231ZM95.2183 15L92.0663 3.32H93.6823L96.4183 13.976L95.6663 13.592H97.5703L96.7383 13.976L98.9623 3.8H100.434L97.8903 15H95.2183ZM102.242 15L99.4423 3.8H100.962L103.474 13.976L102.674 13.592H104.594L103.778 13.976L106.226 3.32H107.794L104.93 15H102.242ZM110.738 10.936V9.56H113.346C113.9 9.56 114.359 9.45333 114.722 9.24C115.084 9.016 115.356 8.71733 115.538 8.344C115.73 7.97067 115.826 7.55467 115.826 7.096C115.826 6.62667 115.73 6.20533 115.538 5.832C115.356 5.45867 115.084 5.16533 114.722 4.952C114.359 4.73867 113.9 4.632 113.346 4.632H110.738V3.256H113.058C114.018 3.256 114.818 3.41067 115.458 3.72C116.108 4.01867 116.599 4.44533 116.93 5C117.26 5.55467 117.426 6.21067 117.426 6.968V7.224C117.426 7.97067 117.26 8.62667 116.93 9.192C116.599 9.74667 116.108 10.1787 115.458 10.488C114.818 10.7867 114.018 10.936 113.058 10.936H110.738ZM109.49 15V3.256H111.058V15H109.49ZM119.244 15V3.32H121.324L124.78 11.112H125.036L128.476 3.32H130.572V15H129.004V5.032L129.116 5.064L125.804 12.584H123.884L120.556 5.064L120.684 5.032V15H119.244Z" fill="white"/>
</svg>
